<mxfile host="app.diagrams.net" modified="2021-08-17T07:01:23.681Z" agent="5.0 (Macintosh; Intel Mac OS X 10_15_7) AppleWebKit/537.36 (KHTML, like Gecko) Chrome/91.0.4472.114 Safari/537.36" etag="jWlWpJ_1O6it9uztcnf0" version="14.9.6" type="github">
  <diagram id="C5RBs43oDa-KdzZeNtuy" name="Page-1">
    <mxGraphModel dx="786" dy="435" grid="1" gridSize="10" guides="1" tooltips="1" connect="1" arrows="1" fold="1" page="1" pageScale="1" pageWidth="827" pageHeight="1169" math="0" shadow="0">
      <root>
        <mxCell id="WIyWlLk6GJQsqaUBKTNV-0" />
        <mxCell id="WIyWlLk6GJQsqaUBKTNV-1" parent="WIyWlLk6GJQsqaUBKTNV-0" />
        <mxCell id="WIyWlLk6GJQsqaUBKTNV-2" value="" style="rounded=0;html=1;jettySize=auto;orthogonalLoop=1;fontSize=11;endArrow=block;endFill=0;endSize=8;strokeWidth=1;shadow=0;labelBackgroundColor=none;edgeStyle=orthogonalEdgeStyle;" parent="WIyWlLk6GJQsqaUBKTNV-1" source="WIyWlLk6GJQsqaUBKTNV-3" target="WIyWlLk6GJQsqaUBKTNV-6" edge="1">
          <mxGeometry relative="1" as="geometry" />
        </mxCell>
        <mxCell id="WIyWlLk6GJQsqaUBKTNV-3" value="Payment Account Synchronsation POST /v1/payment/services/account-synchronisation" style="rounded=1;whiteSpace=wrap;html=1;fontSize=12;glass=0;strokeWidth=1;shadow=0;" parent="WIyWlLk6GJQsqaUBKTNV-1" vertex="1">
          <mxGeometry x="10" y="40" width="200" height="70" as="geometry" />
        </mxCell>
        <mxCell id="WIyWlLk6GJQsqaUBKTNV-4" value="No" style="rounded=0;html=1;jettySize=auto;orthogonalLoop=1;fontSize=11;endArrow=block;endFill=0;endSize=8;strokeWidth=1;shadow=0;labelBackgroundColor=none;edgeStyle=orthogonalEdgeStyle;" parent="WIyWlLk6GJQsqaUBKTNV-1" source="WIyWlLk6GJQsqaUBKTNV-6" edge="1">
          <mxGeometry y="20" relative="1" as="geometry">
            <mxPoint as="offset" />
            <mxPoint x="310" y="160" as="targetPoint" />
          </mxGeometry>
        </mxCell>
        <mxCell id="WIyWlLk6GJQsqaUBKTNV-5" value="Yes" style="edgeStyle=orthogonalEdgeStyle;rounded=0;html=1;jettySize=auto;orthogonalLoop=1;fontSize=11;endArrow=block;endFill=0;endSize=8;strokeWidth=1;shadow=0;labelBackgroundColor=none;" parent="WIyWlLk6GJQsqaUBKTNV-1" source="WIyWlLk6GJQsqaUBKTNV-6" target="WIyWlLk6GJQsqaUBKTNV-7" edge="1">
          <mxGeometry y="10" relative="1" as="geometry">
            <mxPoint as="offset" />
          </mxGeometry>
        </mxCell>
        <mxCell id="WIyWlLk6GJQsqaUBKTNV-6" value="&lt;br&gt;Customer Account Id is&amp;nbsp; Empty?" style="rhombus;whiteSpace=wrap;html=1;shadow=0;fontFamily=Helvetica;fontSize=12;align=center;strokeWidth=1;spacing=6;spacingTop=-4;" parent="WIyWlLk6GJQsqaUBKTNV-1" vertex="1">
          <mxGeometry x="250" y="27.5" width="120" height="95" as="geometry" />
        </mxCell>
        <mxCell id="WIyWlLk6GJQsqaUBKTNV-7" value="Throw error,&amp;nbsp; customer Account Id is missing" style="rounded=1;whiteSpace=wrap;html=1;fontSize=12;glass=0;strokeWidth=1;shadow=0;" parent="WIyWlLk6GJQsqaUBKTNV-1" vertex="1">
          <mxGeometry x="420" y="55" width="120" height="40" as="geometry" />
        </mxCell>
        <mxCell id="GFsSyfeKyiu5ZQWWRBK6-6" style="edgeStyle=orthogonalEdgeStyle;rounded=0;orthogonalLoop=1;jettySize=auto;html=1;entryX=0;entryY=0.5;entryDx=0;entryDy=0;" edge="1" parent="WIyWlLk6GJQsqaUBKTNV-1" source="GFsSyfeKyiu5ZQWWRBK6-1" target="GFsSyfeKyiu5ZQWWRBK6-5">
          <mxGeometry relative="1" as="geometry" />
        </mxCell>
        <mxCell id="GFsSyfeKyiu5ZQWWRBK6-1" value="Fetch the Invidial Customer Details GET /customer-accounts/{customerAccountUUID}" style="rounded=1;whiteSpace=wrap;html=1;fontSize=12;glass=0;strokeWidth=1;shadow=0;" vertex="1" parent="WIyWlLk6GJQsqaUBKTNV-1">
          <mxGeometry x="214" y="160" width="200" height="70" as="geometry" />
        </mxCell>
        <mxCell id="GFsSyfeKyiu5ZQWWRBK6-16" style="edgeStyle=orthogonalEdgeStyle;rounded=0;orthogonalLoop=1;jettySize=auto;html=1;" edge="1" parent="WIyWlLk6GJQsqaUBKTNV-1" source="GFsSyfeKyiu5ZQWWRBK6-2" target="GFsSyfeKyiu5ZQWWRBK6-14">
          <mxGeometry relative="1" as="geometry">
            <Array as="points">
              <mxPoint x="310" y="358" />
            </Array>
          </mxGeometry>
        </mxCell>
        <mxCell id="GFsSyfeKyiu5ZQWWRBK6-2" value="Fetch the Identify Profile Id using&amp;nbsp;&lt;span&gt;GET /individual-identifiers/{individualResourceId}&lt;br&gt;&lt;br&gt;&lt;/span&gt;" style="rounded=1;whiteSpace=wrap;html=1;fontSize=12;glass=0;strokeWidth=1;shadow=0;" vertex="1" parent="WIyWlLk6GJQsqaUBKTNV-1">
          <mxGeometry x="214" y="260" width="200" height="70" as="geometry" />
        </mxCell>
        <mxCell id="GFsSyfeKyiu5ZQWWRBK6-23" style="edgeStyle=orthogonalEdgeStyle;rounded=0;orthogonalLoop=1;jettySize=auto;html=1;entryX=0;entryY=0.5;entryDx=0;entryDy=0;" edge="1" parent="WIyWlLk6GJQsqaUBKTNV-1" source="GFsSyfeKyiu5ZQWWRBK6-3" target="GFsSyfeKyiu5ZQWWRBK6-22">
          <mxGeometry relative="1" as="geometry">
            <Array as="points">
              <mxPoint x="320" y="498" />
              <mxPoint x="470" y="498" />
            </Array>
          </mxGeometry>
        </mxCell>
        <mxCell id="GFsSyfeKyiu5ZQWWRBK6-3" value="Fetch the Agreement details using Funding Association&amp;nbsp;&lt;span&gt;GET /application/payment-agreement/v1/agreement?fundingAssociationType=?&amp;amp;fundingAssociationValue=?&lt;/span&gt;&lt;br&gt;&lt;span&gt;&lt;br&gt;&lt;/span&gt;" style="rounded=1;whiteSpace=wrap;html=1;fontSize=12;glass=0;strokeWidth=1;shadow=0;" vertex="1" parent="WIyWlLk6GJQsqaUBKTNV-1">
          <mxGeometry x="195" y="380" width="250" height="80" as="geometry" />
        </mxCell>
        <mxCell id="GFsSyfeKyiu5ZQWWRBK6-62" style="edgeStyle=orthogonalEdgeStyle;rounded=0;orthogonalLoop=1;jettySize=auto;html=1;entryX=0;entryY=0.5;entryDx=0;entryDy=0;" edge="1" parent="WIyWlLk6GJQsqaUBKTNV-1" source="GFsSyfeKyiu5ZQWWRBK6-4" target="GFsSyfeKyiu5ZQWWRBK6-60">
          <mxGeometry relative="1" as="geometry" />
        </mxCell>
        <mxCell id="GFsSyfeKyiu5ZQWWRBK6-4" value="Fetch the Payment Vault details using Identify Profile Id&amp;nbsp;&lt;span&gt;GET /application/payment-vault/v2/accounts?entityType=IDENTITY_PROFILE_ID&amp;amp;entityId=?&lt;br&gt;&lt;br&gt;&lt;/span&gt;" style="rounded=1;whiteSpace=wrap;html=1;fontSize=12;glass=0;strokeWidth=1;shadow=0;" vertex="1" parent="WIyWlLk6GJQsqaUBKTNV-1">
          <mxGeometry x="190" y="545" width="260" height="70" as="geometry" />
        </mxCell>
        <mxCell id="GFsSyfeKyiu5ZQWWRBK6-8" style="edgeStyle=orthogonalEdgeStyle;rounded=0;orthogonalLoop=1;jettySize=auto;html=1;entryX=1;entryY=0.5;entryDx=0;entryDy=0;" edge="1" parent="WIyWlLk6GJQsqaUBKTNV-1" source="GFsSyfeKyiu5ZQWWRBK6-5" target="GFsSyfeKyiu5ZQWWRBK6-2">
          <mxGeometry relative="1" as="geometry">
            <Array as="points">
              <mxPoint x="540" y="295" />
            </Array>
          </mxGeometry>
        </mxCell>
        <mxCell id="GFsSyfeKyiu5ZQWWRBK6-10" style="edgeStyle=orthogonalEdgeStyle;rounded=0;orthogonalLoop=1;jettySize=auto;html=1;entryX=0;entryY=0.5;entryDx=0;entryDy=0;" edge="1" parent="WIyWlLk6GJQsqaUBKTNV-1" source="GFsSyfeKyiu5ZQWWRBK6-5" target="GFsSyfeKyiu5ZQWWRBK6-9">
          <mxGeometry relative="1" as="geometry" />
        </mxCell>
        <mxCell id="GFsSyfeKyiu5ZQWWRBK6-5" value="Success&amp;nbsp; Response &amp;amp; Is Active == true?" style="rhombus;whiteSpace=wrap;html=1;shadow=0;fontFamily=Helvetica;fontSize=12;align=center;strokeWidth=1;spacing=6;spacingTop=-4;" vertex="1" parent="WIyWlLk6GJQsqaUBKTNV-1">
          <mxGeometry x="480" y="147.5" width="120" height="95" as="geometry" />
        </mxCell>
        <mxCell id="GFsSyfeKyiu5ZQWWRBK6-9" value="Throw error,&amp;nbsp; Response is empty or Null or Error or Not Active" style="rounded=1;whiteSpace=wrap;html=1;fontSize=12;glass=0;strokeWidth=1;shadow=0;" vertex="1" parent="WIyWlLk6GJQsqaUBKTNV-1">
          <mxGeometry x="657" y="167.5" width="120" height="55" as="geometry" />
        </mxCell>
        <mxCell id="GFsSyfeKyiu5ZQWWRBK6-12" value="No" style="text;html=1;align=center;verticalAlign=middle;resizable=0;points=[];autosize=1;strokeColor=none;" vertex="1" parent="WIyWlLk6GJQsqaUBKTNV-1">
          <mxGeometry x="595" y="170" width="30" height="20" as="geometry" />
        </mxCell>
        <mxCell id="GFsSyfeKyiu5ZQWWRBK6-13" value="Yes" style="text;html=1;align=center;verticalAlign=middle;resizable=0;points=[];autosize=1;strokeColor=none;" vertex="1" parent="WIyWlLk6GJQsqaUBKTNV-1">
          <mxGeometry x="500" y="260" width="40" height="20" as="geometry" />
        </mxCell>
        <mxCell id="GFsSyfeKyiu5ZQWWRBK6-19" style="edgeStyle=orthogonalEdgeStyle;rounded=0;orthogonalLoop=1;jettySize=auto;html=1;entryX=0;entryY=0.5;entryDx=0;entryDy=0;" edge="1" parent="WIyWlLk6GJQsqaUBKTNV-1" source="GFsSyfeKyiu5ZQWWRBK6-14" target="GFsSyfeKyiu5ZQWWRBK6-17">
          <mxGeometry relative="1" as="geometry" />
        </mxCell>
        <mxCell id="GFsSyfeKyiu5ZQWWRBK6-20" style="edgeStyle=orthogonalEdgeStyle;rounded=0;orthogonalLoop=1;jettySize=auto;html=1;entryX=1;entryY=0.5;entryDx=0;entryDy=0;" edge="1" parent="WIyWlLk6GJQsqaUBKTNV-1" source="GFsSyfeKyiu5ZQWWRBK6-14" target="GFsSyfeKyiu5ZQWWRBK6-3">
          <mxGeometry relative="1" as="geometry">
            <Array as="points">
              <mxPoint x="550" y="425" />
            </Array>
          </mxGeometry>
        </mxCell>
        <mxCell id="GFsSyfeKyiu5ZQWWRBK6-14" value="Success&amp;nbsp; Response?" style="rhombus;whiteSpace=wrap;html=1;shadow=0;fontFamily=Helvetica;fontSize=12;align=center;strokeWidth=1;spacing=6;spacingTop=-4;" vertex="1" parent="WIyWlLk6GJQsqaUBKTNV-1">
          <mxGeometry x="490" y="310" width="120" height="95" as="geometry" />
        </mxCell>
        <mxCell id="GFsSyfeKyiu5ZQWWRBK6-17" value="Throw error,&amp;nbsp; Response is empty or Null or Not found Identify Profile Id" style="rounded=1;whiteSpace=wrap;html=1;fontSize=12;glass=0;strokeWidth=1;shadow=0;" vertex="1" parent="WIyWlLk6GJQsqaUBKTNV-1">
          <mxGeometry x="657" y="326.25" width="130" height="62.5" as="geometry" />
        </mxCell>
        <mxCell id="GFsSyfeKyiu5ZQWWRBK6-18" value="No" style="text;html=1;align=center;verticalAlign=middle;resizable=0;points=[];autosize=1;strokeColor=none;" vertex="1" parent="WIyWlLk6GJQsqaUBKTNV-1">
          <mxGeometry x="620" y="317.5" width="30" height="20" as="geometry" />
        </mxCell>
        <mxCell id="GFsSyfeKyiu5ZQWWRBK6-21" value="Yes" style="text;html=1;align=center;verticalAlign=middle;resizable=0;points=[];autosize=1;strokeColor=none;" vertex="1" parent="WIyWlLk6GJQsqaUBKTNV-1">
          <mxGeometry x="490" y="400" width="40" height="20" as="geometry" />
        </mxCell>
        <mxCell id="GFsSyfeKyiu5ZQWWRBK6-25" style="edgeStyle=orthogonalEdgeStyle;rounded=0;orthogonalLoop=1;jettySize=auto;html=1;entryX=0;entryY=0.5;entryDx=0;entryDy=0;" edge="1" parent="WIyWlLk6GJQsqaUBKTNV-1" source="GFsSyfeKyiu5ZQWWRBK6-22" target="GFsSyfeKyiu5ZQWWRBK6-24">
          <mxGeometry relative="1" as="geometry" />
        </mxCell>
        <mxCell id="GFsSyfeKyiu5ZQWWRBK6-32" style="edgeStyle=orthogonalEdgeStyle;rounded=0;orthogonalLoop=1;jettySize=auto;html=1;entryX=1;entryY=0.5;entryDx=0;entryDy=0;" edge="1" parent="WIyWlLk6GJQsqaUBKTNV-1" source="GFsSyfeKyiu5ZQWWRBK6-22" target="GFsSyfeKyiu5ZQWWRBK6-4">
          <mxGeometry relative="1" as="geometry">
            <Array as="points">
              <mxPoint x="550" y="580" />
            </Array>
          </mxGeometry>
        </mxCell>
        <mxCell id="GFsSyfeKyiu5ZQWWRBK6-22" value="Success&amp;nbsp; Response?" style="rhombus;whiteSpace=wrap;html=1;shadow=0;fontFamily=Helvetica;fontSize=12;align=center;strokeWidth=1;spacing=6;spacingTop=-4;" vertex="1" parent="WIyWlLk6GJQsqaUBKTNV-1">
          <mxGeometry x="490" y="450" width="120" height="95" as="geometry" />
        </mxCell>
        <mxCell id="GFsSyfeKyiu5ZQWWRBK6-24" value="Throw error,&amp;nbsp; Response is empty or Null or Error" style="rounded=1;whiteSpace=wrap;html=1;fontSize=12;glass=0;strokeWidth=1;shadow=0;" vertex="1" parent="WIyWlLk6GJQsqaUBKTNV-1">
          <mxGeometry x="657" y="476.25" width="140" height="42.5" as="geometry" />
        </mxCell>
        <mxCell id="GFsSyfeKyiu5ZQWWRBK6-26" value="No" style="text;html=1;align=center;verticalAlign=middle;resizable=0;points=[];autosize=1;strokeColor=none;" vertex="1" parent="WIyWlLk6GJQsqaUBKTNV-1">
          <mxGeometry x="610" y="460" width="30" height="20" as="geometry" />
        </mxCell>
        <mxCell id="GFsSyfeKyiu5ZQWWRBK6-27" value="Yes" style="text;html=1;align=center;verticalAlign=middle;resizable=0;points=[];autosize=1;strokeColor=none;" vertex="1" parent="WIyWlLk6GJQsqaUBKTNV-1">
          <mxGeometry x="480" y="525" width="40" height="20" as="geometry" />
        </mxCell>
        <mxCell id="GFsSyfeKyiu5ZQWWRBK6-35" style="edgeStyle=orthogonalEdgeStyle;rounded=0;orthogonalLoop=1;jettySize=auto;html=1;entryX=0.5;entryY=0;entryDx=0;entryDy=0;" edge="1" parent="WIyWlLk6GJQsqaUBKTNV-1" source="GFsSyfeKyiu5ZQWWRBK6-30" target="GFsSyfeKyiu5ZQWWRBK6-34">
          <mxGeometry relative="1" as="geometry" />
        </mxCell>
        <mxCell id="GFsSyfeKyiu5ZQWWRBK6-30" value="Access the Account Synchronization Process" style="shape=process;whiteSpace=wrap;html=1;backgroundOutline=1;" vertex="1" parent="WIyWlLk6GJQsqaUBKTNV-1">
          <mxGeometry x="245" y="650" width="150" height="60" as="geometry" />
        </mxCell>
        <mxCell id="GFsSyfeKyiu5ZQWWRBK6-36" style="edgeStyle=orthogonalEdgeStyle;rounded=0;orthogonalLoop=1;jettySize=auto;html=1;" edge="1" parent="WIyWlLk6GJQsqaUBKTNV-1" source="GFsSyfeKyiu5ZQWWRBK6-34" target="GFsSyfeKyiu5ZQWWRBK6-37">
          <mxGeometry relative="1" as="geometry">
            <mxPoint x="210" y="787.5" as="targetPoint" />
          </mxGeometry>
        </mxCell>
        <mxCell id="GFsSyfeKyiu5ZQWWRBK6-39" style="edgeStyle=orthogonalEdgeStyle;rounded=0;orthogonalLoop=1;jettySize=auto;html=1;entryX=0.5;entryY=0;entryDx=0;entryDy=0;" edge="1" parent="WIyWlLk6GJQsqaUBKTNV-1" source="GFsSyfeKyiu5ZQWWRBK6-34" target="GFsSyfeKyiu5ZQWWRBK6-42">
          <mxGeometry relative="1" as="geometry">
            <mxPoint x="470" y="787.5" as="targetPoint" />
          </mxGeometry>
        </mxCell>
        <mxCell id="GFsSyfeKyiu5ZQWWRBK6-73" style="edgeStyle=orthogonalEdgeStyle;rounded=0;orthogonalLoop=1;jettySize=auto;html=1;entryX=0.59;entryY=0.013;entryDx=0;entryDy=0;entryPerimeter=0;" edge="1" parent="WIyWlLk6GJQsqaUBKTNV-1" source="GFsSyfeKyiu5ZQWWRBK6-34" target="GFsSyfeKyiu5ZQWWRBK6-71">
          <mxGeometry relative="1" as="geometry" />
        </mxCell>
        <mxCell id="GFsSyfeKyiu5ZQWWRBK6-74" value="Token" style="edgeLabel;html=1;align=center;verticalAlign=middle;resizable=0;points=[];" vertex="1" connectable="0" parent="GFsSyfeKyiu5ZQWWRBK6-73">
          <mxGeometry x="0.4945" y="1" relative="1" as="geometry">
            <mxPoint as="offset" />
          </mxGeometry>
        </mxCell>
        <mxCell id="GFsSyfeKyiu5ZQWWRBK6-75" style="edgeStyle=orthogonalEdgeStyle;rounded=0;orthogonalLoop=1;jettySize=auto;html=1;entryX=0;entryY=0.5;entryDx=0;entryDy=0;" edge="1" parent="WIyWlLk6GJQsqaUBKTNV-1" source="GFsSyfeKyiu5ZQWWRBK6-34" target="GFsSyfeKyiu5ZQWWRBK6-42">
          <mxGeometry relative="1" as="geometry">
            <Array as="points">
              <mxPoint x="320" y="880" />
              <mxPoint x="470" y="880" />
              <mxPoint x="470" y="925" />
            </Array>
          </mxGeometry>
        </mxCell>
        <mxCell id="GFsSyfeKyiu5ZQWWRBK6-76" value="EPVA/PVA" style="edgeLabel;html=1;align=center;verticalAlign=middle;resizable=0;points=[];" vertex="1" connectable="0" parent="GFsSyfeKyiu5ZQWWRBK6-75">
          <mxGeometry x="-0.164" y="-1" relative="1" as="geometry">
            <mxPoint as="offset" />
          </mxGeometry>
        </mxCell>
        <mxCell id="GFsSyfeKyiu5ZQWWRBK6-34" value="Assess Decision" style="rhombus;whiteSpace=wrap;html=1;shadow=0;fontFamily=Helvetica;fontSize=12;align=center;strokeWidth=1;spacing=6;spacingTop=-4;" vertex="1" parent="WIyWlLk6GJQsqaUBKTNV-1">
          <mxGeometry x="260" y="740" width="120" height="95" as="geometry" />
        </mxCell>
        <mxCell id="GFsSyfeKyiu5ZQWWRBK6-37" value="No Action, Throw, Message Account is already Synchronized. No Action" style="rounded=1;whiteSpace=wrap;html=1;" vertex="1" parent="WIyWlLk6GJQsqaUBKTNV-1">
          <mxGeometry x="60" y="757.5" width="154" height="60" as="geometry" />
        </mxCell>
        <mxCell id="GFsSyfeKyiu5ZQWWRBK6-38" value="&lt;b&gt;&lt;font color=&quot;#3333ff&quot;&gt;Verified&lt;/font&gt;, &lt;br&gt;&lt;/b&gt;No Anamolies" style="text;html=1;align=center;verticalAlign=middle;resizable=0;points=[];autosize=1;strokeColor=none;" vertex="1" parent="WIyWlLk6GJQsqaUBKTNV-1">
          <mxGeometry x="210" y="740" width="90" height="30" as="geometry" />
        </mxCell>
        <mxCell id="GFsSyfeKyiu5ZQWWRBK6-40" value="&lt;b&gt;&lt;font color=&quot;#3333ff&quot;&gt;Inconsistent&lt;/font&gt;&lt;br&gt;&lt;/b&gt;Data (More than One default Preference &lt;br&gt;is linked to AO)" style="text;html=1;align=center;verticalAlign=middle;resizable=0;points=[];autosize=1;strokeColor=none;" vertex="1" parent="WIyWlLk6GJQsqaUBKTNV-1">
          <mxGeometry x="350" y="707.5" width="230" height="50" as="geometry" />
        </mxCell>
        <mxCell id="GFsSyfeKyiu5ZQWWRBK6-44" style="edgeStyle=orthogonalEdgeStyle;rounded=0;orthogonalLoop=1;jettySize=auto;html=1;entryX=0.5;entryY=0;entryDx=0;entryDy=0;" edge="1" parent="WIyWlLk6GJQsqaUBKTNV-1" source="GFsSyfeKyiu5ZQWWRBK6-42" target="GFsSyfeKyiu5ZQWWRBK6-43">
          <mxGeometry relative="1" as="geometry" />
        </mxCell>
        <mxCell id="GFsSyfeKyiu5ZQWWRBK6-42" value="&lt;span&gt;Update Funding Association / Align Preferences&lt;br&gt;PATCH&amp;nbsp; /application/payment-agreement/v1/agreement&lt;br&gt;&lt;br&gt;&lt;/span&gt;" style="rounded=1;whiteSpace=wrap;html=1;fontSize=12;glass=0;strokeWidth=1;shadow=0;" vertex="1" parent="WIyWlLk6GJQsqaUBKTNV-1">
          <mxGeometry x="507.5" y="890" width="195" height="70" as="geometry" />
        </mxCell>
        <mxCell id="GFsSyfeKyiu5ZQWWRBK6-49" style="edgeStyle=orthogonalEdgeStyle;rounded=0;orthogonalLoop=1;jettySize=auto;html=1;entryX=1;entryY=0.5;entryDx=0;entryDy=0;" edge="1" parent="WIyWlLk6GJQsqaUBKTNV-1" source="GFsSyfeKyiu5ZQWWRBK6-43">
          <mxGeometry relative="1" as="geometry">
            <mxPoint x="420" y="1087.5" as="targetPoint" />
          </mxGeometry>
        </mxCell>
        <mxCell id="GFsSyfeKyiu5ZQWWRBK6-52" style="edgeStyle=orthogonalEdgeStyle;rounded=0;orthogonalLoop=1;jettySize=auto;html=1;" edge="1" parent="WIyWlLk6GJQsqaUBKTNV-1" source="GFsSyfeKyiu5ZQWWRBK6-43" target="GFsSyfeKyiu5ZQWWRBK6-50">
          <mxGeometry relative="1" as="geometry" />
        </mxCell>
        <mxCell id="GFsSyfeKyiu5ZQWWRBK6-43" value="&amp;nbsp;Response?" style="rhombus;whiteSpace=wrap;html=1;shadow=0;fontFamily=Helvetica;fontSize=12;align=center;strokeWidth=1;spacing=6;spacingTop=-4;" vertex="1" parent="WIyWlLk6GJQsqaUBKTNV-1">
          <mxGeometry x="467.5" y="1040" width="120" height="95" as="geometry" />
        </mxCell>
        <mxCell id="GFsSyfeKyiu5ZQWWRBK6-46" value="&lt;b&gt;&lt;font color=&quot;#3333ff&quot;&gt;Remediate&lt;/font&gt;&lt;br&gt;&lt;/b&gt;Data (AO is not payer, &lt;br&gt;not linked to default Preference&lt;font style=&quot;font-size: 12px&quot;&gt;)&lt;/font&gt;" style="text;html=1;align=center;verticalAlign=middle;resizable=0;points=[];autosize=1;strokeColor=none;" vertex="1" parent="WIyWlLk6GJQsqaUBKTNV-1">
          <mxGeometry x="90" y="850" width="190" height="50" as="geometry" />
        </mxCell>
        <mxCell id="GFsSyfeKyiu5ZQWWRBK6-50" value="Error Message" style="rounded=1;whiteSpace=wrap;html=1;" vertex="1" parent="WIyWlLk6GJQsqaUBKTNV-1">
          <mxGeometry x="633" y="1057.5" width="107" height="52.5" as="geometry" />
        </mxCell>
        <mxCell id="GFsSyfeKyiu5ZQWWRBK6-51" value="Success" style="text;html=1;align=center;verticalAlign=middle;resizable=0;points=[];autosize=1;strokeColor=none;" vertex="1" parent="WIyWlLk6GJQsqaUBKTNV-1">
          <mxGeometry x="420" y="1060" width="60" height="20" as="geometry" />
        </mxCell>
        <mxCell id="GFsSyfeKyiu5ZQWWRBK6-53" value="Failure" style="text;html=1;align=center;verticalAlign=middle;resizable=0;points=[];autosize=1;strokeColor=none;" vertex="1" parent="WIyWlLk6GJQsqaUBKTNV-1">
          <mxGeometry x="580" y="1060" width="50" height="20" as="geometry" />
        </mxCell>
        <mxCell id="GFsSyfeKyiu5ZQWWRBK6-78" style="edgeStyle=orthogonalEdgeStyle;rounded=0;orthogonalLoop=1;jettySize=auto;html=1;" edge="1" parent="WIyWlLk6GJQsqaUBKTNV-1" source="GFsSyfeKyiu5ZQWWRBK6-55" target="GFsSyfeKyiu5ZQWWRBK6-58">
          <mxGeometry relative="1" as="geometry" />
        </mxCell>
        <mxCell id="GFsSyfeKyiu5ZQWWRBK6-85" style="edgeStyle=orthogonalEdgeStyle;rounded=0;orthogonalLoop=1;jettySize=auto;html=1;entryX=0.5;entryY=0;entryDx=0;entryDy=0;" edge="1" parent="WIyWlLk6GJQsqaUBKTNV-1" source="GFsSyfeKyiu5ZQWWRBK6-55" target="GFsSyfeKyiu5ZQWWRBK6-79">
          <mxGeometry relative="1" as="geometry">
            <Array as="points">
              <mxPoint x="223" y="1098" />
              <mxPoint x="223" y="1070" />
              <mxPoint x="135" y="1070" />
            </Array>
          </mxGeometry>
        </mxCell>
        <mxCell id="GFsSyfeKyiu5ZQWWRBK6-55" value="&lt;span&gt;Send the updated details as events for both Inconsistent &amp;amp; Remediate operations.&lt;/span&gt;" style="strokeWidth=2;html=1;shape=mxgraph.flowchart.document2;whiteSpace=wrap;size=0.25;" vertex="1" parent="WIyWlLk6GJQsqaUBKTNV-1">
          <mxGeometry x="250" y="1057.5" width="170" height="80" as="geometry" />
        </mxCell>
        <mxCell id="GFsSyfeKyiu5ZQWWRBK6-58" value="&lt;span&gt;Send the API Success Message&lt;br&gt;&lt;/span&gt;" style="rounded=1;whiteSpace=wrap;html=1;fontSize=12;glass=0;strokeWidth=1;shadow=0;" vertex="1" parent="WIyWlLk6GJQsqaUBKTNV-1">
          <mxGeometry x="273.75" y="1180" width="122.5" height="60" as="geometry" />
        </mxCell>
        <mxCell id="GFsSyfeKyiu5ZQWWRBK6-63" style="edgeStyle=orthogonalEdgeStyle;rounded=0;orthogonalLoop=1;jettySize=auto;html=1;entryX=1;entryY=0.75;entryDx=0;entryDy=0;" edge="1" parent="WIyWlLk6GJQsqaUBKTNV-1" source="GFsSyfeKyiu5ZQWWRBK6-60" target="GFsSyfeKyiu5ZQWWRBK6-30">
          <mxGeometry relative="1" as="geometry">
            <Array as="points">
              <mxPoint x="510" y="695" />
            </Array>
          </mxGeometry>
        </mxCell>
        <mxCell id="GFsSyfeKyiu5ZQWWRBK6-66" style="edgeStyle=orthogonalEdgeStyle;rounded=0;orthogonalLoop=1;jettySize=auto;html=1;entryX=0;entryY=0.5;entryDx=0;entryDy=0;" edge="1" parent="WIyWlLk6GJQsqaUBKTNV-1" source="GFsSyfeKyiu5ZQWWRBK6-60" target="GFsSyfeKyiu5ZQWWRBK6-65">
          <mxGeometry relative="1" as="geometry" />
        </mxCell>
        <mxCell id="GFsSyfeKyiu5ZQWWRBK6-60" value="Success&amp;nbsp; Response?" style="rhombus;whiteSpace=wrap;html=1;shadow=0;fontFamily=Helvetica;fontSize=12;align=center;strokeWidth=1;spacing=6;spacingTop=-4;" vertex="1" parent="WIyWlLk6GJQsqaUBKTNV-1">
          <mxGeometry x="450" y="590" width="120" height="95" as="geometry" />
        </mxCell>
        <mxCell id="GFsSyfeKyiu5ZQWWRBK6-64" value="Yes" style="text;html=1;align=center;verticalAlign=middle;resizable=0;points=[];autosize=1;strokeColor=none;" vertex="1" parent="WIyWlLk6GJQsqaUBKTNV-1">
          <mxGeometry x="430" y="670" width="40" height="20" as="geometry" />
        </mxCell>
        <mxCell id="GFsSyfeKyiu5ZQWWRBK6-65" value="Throw error,&amp;nbsp; Response is empty or Null or Error" style="rounded=1;whiteSpace=wrap;html=1;fontSize=12;glass=0;strokeWidth=1;shadow=0;" vertex="1" parent="WIyWlLk6GJQsqaUBKTNV-1">
          <mxGeometry x="660" y="617.5" width="140" height="40" as="geometry" />
        </mxCell>
        <mxCell id="GFsSyfeKyiu5ZQWWRBK6-67" value="No" style="text;html=1;align=center;verticalAlign=middle;resizable=0;points=[];autosize=1;strokeColor=none;" vertex="1" parent="WIyWlLk6GJQsqaUBKTNV-1">
          <mxGeometry x="585" y="610" width="30" height="20" as="geometry" />
        </mxCell>
        <mxCell id="GFsSyfeKyiu5ZQWWRBK6-70" value="Sending Events only if&amp;nbsp;&lt;b&gt;&lt;font color=&quot;#3333ff&quot;&gt;Remediate&lt;/font&gt;&lt;/b&gt;" style="text;html=1;align=center;verticalAlign=middle;resizable=0;points=[];autosize=1;strokeColor=none;" vertex="1" parent="WIyWlLk6GJQsqaUBKTNV-1">
          <mxGeometry x="245" y="1030" width="200" height="20" as="geometry" />
        </mxCell>
        <mxCell id="GFsSyfeKyiu5ZQWWRBK6-77" style="edgeStyle=orthogonalEdgeStyle;rounded=0;orthogonalLoop=1;jettySize=auto;html=1;entryX=0;entryY=0.75;entryDx=0;entryDy=0;" edge="1" parent="WIyWlLk6GJQsqaUBKTNV-1" source="GFsSyfeKyiu5ZQWWRBK6-71" target="GFsSyfeKyiu5ZQWWRBK6-42">
          <mxGeometry relative="1" as="geometry" />
        </mxCell>
        <mxCell id="GFsSyfeKyiu5ZQWWRBK6-71" value="token-based payment agreement&lt;br&gt;not linked to a payment&lt;br&gt;method in the Account Owners" style="shape=parallelogram;html=1;strokeWidth=2;perimeter=parallelogramPerimeter;whiteSpace=wrap;rounded=1;arcSize=12;size=0.23;" vertex="1" parent="WIyWlLk6GJQsqaUBKTNV-1">
          <mxGeometry x="124" y="920" width="290" height="80" as="geometry" />
        </mxCell>
        <mxCell id="GFsSyfeKyiu5ZQWWRBK6-86" style="edgeStyle=orthogonalEdgeStyle;rounded=0;orthogonalLoop=1;jettySize=auto;html=1;entryX=0;entryY=0.5;entryDx=0;entryDy=0;" edge="1" parent="WIyWlLk6GJQsqaUBKTNV-1" source="GFsSyfeKyiu5ZQWWRBK6-79" target="GFsSyfeKyiu5ZQWWRBK6-58">
          <mxGeometry relative="1" as="geometry" />
        </mxCell>
        <mxCell id="GFsSyfeKyiu5ZQWWRBK6-87" value="" style="edgeStyle=orthogonalEdgeStyle;rounded=0;orthogonalLoop=1;jettySize=auto;html=1;" edge="1" parent="WIyWlLk6GJQsqaUBKTNV-1" source="GFsSyfeKyiu5ZQWWRBK6-79" target="GFsSyfeKyiu5ZQWWRBK6-84">
          <mxGeometry relative="1" as="geometry" />
        </mxCell>
        <mxCell id="GFsSyfeKyiu5ZQWWRBK6-79" value="&amp;nbsp;Response?" style="rhombus;whiteSpace=wrap;html=1;shadow=0;fontFamily=Helvetica;fontSize=12;align=center;strokeWidth=1;spacing=6;spacingTop=-4;" vertex="1" parent="WIyWlLk6GJQsqaUBKTNV-1">
          <mxGeometry x="75" y="1085" width="120" height="95" as="geometry" />
        </mxCell>
        <mxCell id="GFsSyfeKyiu5ZQWWRBK6-84" value="&lt;span&gt;Log Error Message&lt;br&gt;&lt;/span&gt;" style="rounded=1;whiteSpace=wrap;html=1;fontSize=12;glass=0;strokeWidth=1;shadow=0;" vertex="1" parent="WIyWlLk6GJQsqaUBKTNV-1">
          <mxGeometry x="73.75" y="1220" width="122.5" height="60" as="geometry" />
        </mxCell>
        <mxCell id="GFsSyfeKyiu5ZQWWRBK6-89" value="No" style="text;html=1;align=center;verticalAlign=middle;resizable=0;points=[];autosize=1;strokeColor=none;" vertex="1" parent="WIyWlLk6GJQsqaUBKTNV-1">
          <mxGeometry x="105" y="1180" width="30" height="20" as="geometry" />
        </mxCell>
        <mxCell id="GFsSyfeKyiu5ZQWWRBK6-90" value="Yes" style="text;html=1;align=center;verticalAlign=middle;resizable=0;points=[];autosize=1;strokeColor=none;" vertex="1" parent="WIyWlLk6GJQsqaUBKTNV-1">
          <mxGeometry x="196.25" y="1149" width="40" height="20" as="geometry" />
        </mxCell>
      </root>
    </mxGraphModel>
  </diagram>
</mxfile>
